<?xml version="1.0" encoding="UTF-8" standalone="no"?><!DOCTYPE svg PUBLIC "-//W3C//DTD SVG 1.1//EN" "http://www.w3.org/Graphics/SVG/1.1/DTD/svg11.dtd"><svg width="100%" height="100%" viewBox="0 0 1257 259" version="1.1" xmlns="http://www.w3.org/2000/svg" xmlns:xlink="http://www.w3.org/1999/xlink" xml:space="preserve" xmlns:serif="http://www.serif.com/" style="fill-rule:evenodd;clip-rule:evenodd;stroke-linejoin:round;stroke-miterlimit:2;"><rect id="Artboard1" x="-0" y="-0" width="1256.12" height="258.66" style="fill:none;"/><g id="Artboard11" serif:id="Artboard1"><g transform="matrix(17.2266,0,0,17.2266,1.66215,194.243)"><g transform="matrix(7.73995,0,0,7.73995,0,-8.88178e-16)"><path d="M0.375,-0l-0.375,-0.375l0,-0.625l0.25,0l0,0.5l0.25,0.25l0.25,-0.25l0,-0.5l0.25,0l0,0.625l-0.375,0.375l-0.25,-0Z" style="fill:#f259c9;fill-rule:nonzero;"/></g><g transform="matrix(7.73995,0,0,7.73995,8.51093,-8.88178e-16)"><path d="M0,-0l0,-1l1,0l0,0.25l-0.75,0l0,0.125l0.75,0l0,0.25l-0.75,0l0,0.125l0.75,0l0,0.25l-1,-0Z" style="fill:#f259c9;fill-rule:nonzero;"/></g><g transform="matrix(7.73995,0,0,7.73995,17.0219,-8.88178e-16)"><rect x="0" y="-1" width="0.25" height="1" style="fill:#f259c9;fill-rule:nonzero;"/></g><g transform="matrix(7.73995,0,0,7.73995,19.7278,-8.88178e-16)"><path d="M0,-0l0,-1l0.25,0l0,0.75l0.75,0l0,0.25l-1,-0Z" style="fill:#f259c9;fill-rule:nonzero;"/></g><g transform="matrix(7.73995,0,0,7.73995,28.2387,-8.88178e-16)"><rect x="0" y="-1" width="0.25" height="1" style="fill:#f259c9;fill-rule:nonzero;"/></g><g transform="matrix(7.73995,0,0,7.73995,30.9447,-8.88178e-16)"><path d="M0.688,-0.25l0.062,-0.063l0,-0.375l-0.063,-0.062l-0.437,0l-0,0.5l0.437,0Zm-0.687,0.25l0,-1l0.875,0l0.125,0.125l0,0.75l-0.125,0.125l-0.875,-0Z" style="fill:#f259c9;fill-rule:nonzero;"/></g><g transform="matrix(7.73995,0,0,7.73995,39.4556,-8.88178e-16)"><path d="M0,-0l0,-1l1,0l0,0.25l-0.75,0l0,0.5l0.75,0l0,0.25l-1,-0Z" style="fill:#3aa2e8;fill-rule:nonzero;"/></g><g transform="matrix(7.73995,0,0,7.73995,47.9665,-8.88178e-16)"><path d="M0,-0l0,-1l0.25,0l0,0.375l0.5,0l0,-0.375l0.25,0l0,1l-0.25,-0l0,-0.375l-0.5,0l0,0.375l-0.25,-0Z" style="fill:#3aa2e8;fill-rule:nonzero;"/></g><g transform="matrix(7.73995,0,0,7.73995,56.4775,-8.88178e-16)"><path d="M0.75,-0.625l0,-0.125l-0.5,0l0,0.125l0.5,0Zm-0.75,0.625l0,-1l1,0l0,1l-0.25,-0l0,-0.375l-0.5,0l0,0.375l-0.25,-0Z" style="fill:#3aa2e8;fill-rule:nonzero;"/></g><g transform="matrix(7.73995,0,0,7.73995,64.9884,-8.88178e-16)"><path d="M0.375,-0l0,-0.75l-0.375,0l0,-0.25l1,0l0,0.25l-0.375,0l0,0.75l-0.25,-0Z" style="fill:#3aa2e8;fill-rule:nonzero;"/></g></g></g></svg>